<svg width="34" height="34" viewBox="0 0 34 34" fill="none" xmlns="http://www.w3.org/2000/svg">
<path d="M31.875 17C31.875 25.211 25.2184 31.875 17 31.875C8.78156 31.875 2.125 25.211 2.125 17C2.125 8.78156 8.78156 2.125 17 2.125C25.2184 2.125 31.875 8.78156 31.875 17Z" fill="#283544"/>
<path d="M23.9722 13.236C23.8911 13.2833 21.9588 14.2826 21.9588 16.4983C22.0498 19.0252 24.3972 19.9114 24.4375 19.9114C24.3972 19.9587 24.0831 21.1186 23.1526 22.3343C22.4141 23.3816 21.5945 24.4375 20.3498 24.4375C19.1659 24.4375 18.7409 23.7395 17.3748 23.7395C15.9078 23.7395 15.4927 24.4375 14.3695 24.4375C13.1248 24.4375 12.2445 23.325 11.4657 22.2876C10.454 20.9298 9.59414 18.7989 9.56378 16.7529C9.54332 15.6688 9.76638 14.603 10.3326 13.6978C11.1318 12.4341 12.5586 11.5762 14.1167 11.5479C15.3105 11.5104 16.373 12.3117 17.1016 12.3117C17.7998 12.3117 19.1052 11.5479 20.5821 11.5479C21.2196 11.5485 22.9196 11.7275 23.9722 13.236ZM17.0006 11.3314C16.7881 10.3413 17.3748 9.35126 17.9213 8.7197C18.6195 7.95591 19.7222 7.4375 20.6732 7.4375C20.7339 8.42759 20.3492 9.39861 19.6615 10.1058C19.0445 10.8696 17.982 11.4446 17.0006 11.3314Z" fill="white"/>
</svg>
